<svg width="221" height="69" viewBox="0 0 221 69" fill="none" xmlns="http://www.w3.org/2000/svg">
<path d="M14.4963 30.5917C13.9081 30.4143 13.5396 30.3361 13.1339 30.4096C12.6956 30.489 12.1551 30.7422 11.2297 31.2254C10.6287 31.5393 9.96725 31.7401 9.28138 31.8078C8.61759 31.8731 7.93405 31.8171 7.25864 31.6199C5.83458 31.2056 4.71394 30.2497 4.05132 29.0418C3.3887 27.8327 3.18642 26.3715 3.59911 24.9418C4.01179 23.5122 4.96388 22.3871 6.16706 21.7219C7.3714 21.0566 8.82684 20.8536 10.2509 21.2679C10.9251 21.4639 11.5343 21.7849 12.0597 22.1969C12.6026 22.6229 13.0548 23.148 13.3954 23.7362C13.9162 24.6372 14.2382 25.1414 14.5614 25.4425C14.8613 25.7215 15.2078 25.8545 15.789 26.0191L16.2598 26.1521C17.098 26.389 17.9245 26.6224 18.7627 26.8827C19.4416 27.0928 19.8426 27.1978 20.2635 27.1348C20.711 27.0683 21.2574 26.815 22.2269 26.3085C22.8279 25.9945 23.4894 25.7938 24.1752 25.7261C24.839 25.6608 25.5226 25.7168 26.198 25.914C27.622 26.3283 28.7427 27.2842 29.4053 28.4921C30.0679 29.7012 30.2702 31.1624 29.8575 32.592C29.4448 34.0217 28.4927 35.1468 27.2896 35.812C26.0852 36.4773 24.6298 36.6803 23.2057 36.266C22.5315 36.0699 21.9223 35.749 21.3969 35.337C20.854 34.911 20.4018 34.3858 20.0612 33.7976C19.559 32.9293 19.2416 32.4287 18.9277 32.1229C18.6418 31.844 18.3244 31.7074 17.8094 31.5557C17.3363 31.4156 16.8632 31.2803 16.3889 31.1437C15.7576 30.9628 15.1264 30.7807 14.4952 30.5905L14.4963 30.5917ZM51.4543 8.16974C50.9242 7.81378 50.6115 7.55819 50.3627 7.1112C50.1314 6.69689 49.9884 6.15886 49.7908 5.2322C49.6955 4.78404 49.5164 4.35456 49.2572 3.96826C49.0084 3.59596 48.6864 3.26451 48.2947 2.99725C47.4704 2.43355 46.4974 2.25848 45.5895 2.43121C44.6909 2.60277 43.8563 3.11512 43.2959 3.92857C43.2866 3.94375 43.2762 3.95892 43.2657 3.97292C42.717 4.79571 42.5473 5.76322 42.717 6.66654C42.8879 7.5687 43.3982 8.40666 44.2085 8.96919C44.2236 8.97853 44.2387 8.98903 44.2527 8.99954C44.6386 9.25863 45.0559 9.43369 45.4837 9.52939C45.9371 9.62976 46.401 9.64026 46.8497 9.56557C47.7785 9.41151 48.3284 9.34733 48.7899 9.40918C49.2897 9.4757 49.6408 9.67061 50.1593 10.0312L50.4929 10.2635C51.0777 10.6708 51.6543 11.0723 52.2564 11.4691C52.8505 11.86 53.1911 12.1121 53.4596 12.5591C53.7142 12.9816 53.8618 13.5278 54.0699 14.5035C54.1652 14.9516 54.3443 15.3811 54.6035 15.7674C54.8523 16.1397 55.1743 16.4712 55.566 16.7384C56.3903 17.3021 57.3633 17.4772 58.2712 17.3045C59.1698 17.1329 60.0044 16.6206 60.5648 15.8071C60.5741 15.7919 60.5845 15.7768 60.595 15.7628C61.1437 14.94 61.3134 13.9725 61.1437 13.0691C60.974 12.167 60.4625 11.329 59.6522 10.7665C59.6371 10.7572 59.622 10.7467 59.608 10.7361C59.2221 10.4771 58.8048 10.302 58.377 10.2063C57.9236 10.1059 57.4598 10.0954 57.011 10.1701C56.1194 10.3183 55.5777 10.3825 55.129 10.3335C54.6372 10.2798 54.2908 10.1059 53.8084 9.77798C53.3422 9.4617 53.0702 9.2738 52.797 9.0859C52.3529 8.78012 51.91 8.47435 51.4566 8.16974H51.4543ZM51.1509 6.66771C51.3078 6.94898 51.545 7.13688 51.9577 7.41347C52.4099 7.71692 52.8586 8.02619 53.3073 8.33547C53.7049 8.60973 54.1025 8.88399 54.3117 9.02638C54.6686 9.26796 54.9139 9.39517 55.2266 9.43019C55.5823 9.4687 56.0601 9.41035 56.8634 9.27613C57.4272 9.18277 58.0084 9.1956 58.5734 9.32048C59.1186 9.44069 59.6499 9.66594 60.1381 10.0009C61.1681 10.7058 61.8168 11.7632 62.0318 12.9034C62.2469 14.0425 62.0295 15.2633 61.3274 16.2961C60.6252 17.3301 59.572 17.9814 58.4362 18.1973C57.3017 18.4132 56.0857 18.195 55.0569 17.49C54.5675 17.1551 54.1629 16.7396 53.8514 16.2751C53.5282 15.7919 53.3038 15.2539 53.1841 14.6949C52.9981 13.8196 52.8726 13.3434 52.6854 13.0306C52.5122 12.7424 52.2402 12.5451 51.76 12.2288C51.1555 11.8309 50.5708 11.4236 49.9779 11.0104L49.6443 10.7782C49.2467 10.5027 48.9898 10.3545 48.669 10.3125C48.3109 10.2646 47.8285 10.323 46.9961 10.4619C46.4323 10.5553 45.8511 10.5424 45.2861 10.4175C44.7409 10.2973 44.2097 10.0721 43.7214 9.73713C42.6914 9.03221 42.0428 7.97484 41.8277 6.8346C41.6126 5.69553 41.83 4.47477 42.531 3.4419C43.2332 2.40787 44.2864 1.75664 45.4221 1.54073C46.5567 1.32482 47.7727 1.54306 48.8015 2.24798C49.2909 2.58293 49.6955 2.99841 50.007 3.46291C50.3302 3.94608 50.5545 4.4841 50.6743 5.04314C50.8533 5.8811 50.9754 6.35493 51.1497 6.66771H51.1509ZM64.7776 41.3732C64.9509 40.7546 65.0973 40.3776 65.4403 40.0042C65.76 39.6564 66.225 39.3541 67.0457 38.8768C67.0538 38.8721 67.0631 38.8674 67.0724 38.8628C67.4549 38.6364 67.7966 38.3376 68.078 37.9781C68.3546 37.6245 68.5685 37.2137 68.7011 36.7585C68.9801 35.798 68.8452 34.8142 68.4011 34.0007C67.9571 33.1873 67.2049 32.5442 66.2482 32.2641C65.2915 31.984 64.3115 32.1194 63.5012 32.5652C62.691 33.011 62.0504 33.7661 61.7714 34.7266C61.6389 35.1841 61.5994 35.6463 61.6424 36.0933C61.6866 36.5543 61.8214 37.0013 62.0318 37.4086C62.462 38.243 62.6921 38.7472 62.777 39.2141C62.8688 39.7136 62.7933 40.1092 62.6131 40.7126L62.4968 41.1024C62.2911 41.7875 62.0888 42.4644 61.8993 43.1588C61.7122 43.8462 61.5785 44.2488 61.239 44.6433C60.9182 45.0156 60.4462 45.3249 59.5848 45.8267L59.5836 45.8279L59.5848 45.8291C59.1907 46.0578 58.8396 46.3624 58.5537 46.7277C58.277 47.0813 58.0631 47.4922 57.9306 47.9473C57.6516 48.9078 57.7864 49.8917 58.2305 50.7051C58.6746 51.5186 59.4267 52.1616 60.3834 52.4417C61.3402 52.7218 62.3201 52.5865 63.1304 52.1406C63.9407 51.6948 64.5812 50.9397 64.8602 49.9792C64.9927 49.5217 65.0322 49.0595 64.9892 48.6126C64.945 48.1516 64.8102 47.7046 64.5998 47.2973C64.1859 46.4955 63.9569 45.9983 63.8639 45.549C63.7628 45.0623 63.8209 44.6783 63.9825 44.1158C64.0953 43.7213 64.2115 43.3292 64.3266 42.937C64.48 42.4177 64.6335 41.8972 64.78 41.3732H64.7776ZM66.1064 40.6204C65.8855 40.8608 65.7797 41.1444 65.646 41.6217C65.4984 42.1493 65.3438 42.6709 65.1903 43.1926C65.0752 43.5836 64.9602 43.9757 64.8474 44.3679C64.7288 44.7822 64.6835 45.0553 64.7486 45.3657C64.8207 45.7124 65.0253 46.1512 65.4007 46.8794C65.6623 47.386 65.8297 47.945 65.8855 48.5262C65.9401 49.0841 65.8913 49.6606 65.7251 50.2313C65.3763 51.4334 64.5754 52.3787 63.5617 52.9354C62.5491 53.4921 61.3262 53.6613 60.13 53.3112C58.9326 52.9611 57.991 52.157 57.4365 51.1393C56.882 50.1228 56.7134 48.895 57.0622 47.6941C57.2284 47.1222 57.497 46.6087 57.8399 46.1687C58.1979 45.71 58.6385 45.3296 59.1326 45.0425L59.1337 45.0436C59.9033 44.5955 60.316 44.3294 60.5543 44.0528C60.774 43.7972 60.8763 43.4774 61.0286 42.9207C61.2193 42.2181 61.425 41.5354 61.6319 40.8433L61.7482 40.4535C61.8877 39.9867 61.9481 39.6949 61.89 39.3774C61.8261 39.0262 61.6203 38.5838 61.2297 37.8264C60.9682 37.3187 60.8008 36.7609 60.745 36.1796C60.6903 35.6218 60.7391 35.0452 60.9054 34.4745C61.2541 33.2725 62.0551 32.3271 63.0688 31.7704C64.0813 31.2137 65.3043 31.0445 66.5005 31.3946C67.6978 31.7447 68.6395 32.5489 69.194 33.5666C69.7485 34.5831 69.917 35.8109 69.5683 37.0118C69.402 37.5836 69.1335 38.0972 68.7906 38.5372C68.4407 38.9841 68.0117 39.3588 67.5293 39.6447C67.5188 39.6517 67.5095 39.6576 67.4979 39.6646C66.762 40.0929 66.3517 40.3555 66.1075 40.6216L66.1064 40.6204ZM37.4393 64.3565C38.0787 64.3308 38.482 64.3541 38.9401 64.5654C39.369 64.7638 39.8003 65.1151 40.5036 65.7499C40.8431 66.0557 41.2395 66.2973 41.6743 66.4572C42.0951 66.6113 42.5508 66.6894 43.0239 66.6754C44.0202 66.6451 44.9095 66.2121 45.5419 65.5375C46.1743 64.863 46.5509 63.9445 46.5207 62.9431C46.4905 61.9429 46.0592 61.0501 45.3873 60.4152C44.7153 59.7803 43.8005 59.4022 42.803 59.4325C42.3287 59.4466 41.88 59.5516 41.472 59.7313C41.0488 59.9169 40.6675 60.183 40.3467 60.5098C39.6887 61.1797 39.2807 61.5555 38.8657 61.7807C38.4204 62.0235 38.0217 62.0725 37.3928 62.0877L36.9871 62.097C36.2733 62.1122 35.5688 62.1285 34.8551 62.1623C34.1471 62.1962 33.724 62.1927 33.2462 61.9908C32.7928 61.7994 32.3545 61.4446 31.6129 60.7759C31.2734 60.4701 30.877 60.2285 30.4422 60.0686C30.0214 59.9146 29.5657 59.8364 29.0926 59.8504C28.0963 59.8807 27.207 60.3137 26.5746 60.9883C25.9422 61.6628 25.5656 62.5813 25.5958 63.5827C25.626 64.5829 26.0573 65.4757 26.7292 66.1106C27.4012 66.7455 28.316 67.1236 29.3135 67.0933C29.7878 67.0793 30.2365 66.9742 30.6445 66.7945C31.0677 66.6089 31.449 66.3428 31.7698 66.016C32.4022 65.373 32.8021 65.0018 33.1997 64.7731C33.631 64.5257 34.0123 64.4615 34.5935 64.4417C34.8516 64.4323 35.334 64.4195 35.8176 64.4066C36.3582 64.3926 36.8987 64.3775 37.4381 64.3565H37.4393ZM38.5646 65.3928C38.2681 65.2563 37.9659 65.2423 37.473 65.2621C36.9243 65.2843 36.3826 65.2983 35.842 65.3123C35.5119 65.3216 35.1817 65.3298 34.6249 65.3485C34.1936 65.3636 33.9204 65.4045 33.6484 65.5609C33.3427 65.7359 32.9916 66.0662 32.4173 66.6509C32.0174 67.0582 31.5396 67.3897 31.0072 67.6231C30.5062 67.8425 29.9575 67.9732 29.3809 67.9966C29.3553 68.0001 29.3286 68.0001 29.3018 67.9989C28.0719 68.0257 26.9443 67.5554 26.112 66.7688C25.2796 65.9822 24.7437 64.8816 24.6949 63.6469C24.6914 63.6212 24.6914 63.5944 24.6926 63.5675C24.6658 62.3327 25.1343 61.2007 25.9178 60.365C26.7095 59.5212 27.822 58.9797 29.067 58.9412H29.0682C29.661 58.9237 30.2295 59.0206 30.7526 59.2131C31.2978 59.4127 31.7942 59.7161 32.2185 60.0989C32.8812 60.6965 33.2613 61.0081 33.5961 61.1505C33.9065 61.2824 34.2413 61.2812 34.8155 61.2532C35.5433 61.2182 36.2524 61.203 36.9696 61.1867L37.3754 61.1773C37.859 61.1657 38.1542 61.133 38.4367 60.9801C38.7494 60.8097 39.1051 60.4771 39.7003 59.8714C40.1002 59.4641 40.578 59.1326 41.1104 58.8992C41.6115 58.6798 42.1602 58.5491 42.7368 58.5257C42.7623 58.5222 42.7891 58.5222 42.8158 58.5234C44.0457 58.4965 45.1734 58.9669 46.0057 59.7535C46.8381 60.5401 47.374 61.6407 47.4228 62.8754C47.4263 62.9011 47.4263 62.9279 47.4251 62.9548C47.4518 64.1896 46.9834 65.3216 46.1998 66.1573C45.4082 67.0022 44.2957 67.5426 43.0495 67.5811C42.4566 67.5986 41.8882 67.5017 41.365 67.3092C40.8198 67.1096 40.3234 66.8062 39.8991 66.4234C39.2656 65.8515 38.8901 65.541 38.5634 65.3917L38.5646 65.3928ZM7.21911 45.3529C7.44115 45.9563 7.54345 46.3484 7.48416 46.8538C7.42952 47.3241 7.22957 47.8434 6.84595 48.7106C6.66112 49.1284 6.55417 49.5824 6.53789 50.0492C6.52162 50.4962 6.58788 50.9549 6.7483 51.403C7.08543 52.3449 7.76897 53.0615 8.60364 53.4559C9.4325 53.8492 10.4102 53.9263 11.3436 53.596C11.3564 53.5901 11.3704 53.5855 11.3832 53.582C12.312 53.2412 13.0176 52.5584 13.4082 51.7263C13.8 50.8942 13.8767 49.9127 13.5477 48.9755C13.5419 48.9615 13.5373 48.9487 13.5326 48.9347C13.3722 48.4947 13.1374 48.1049 12.8467 47.7769C12.5387 47.428 12.169 47.1455 11.761 46.9413C10.9217 46.5188 10.4404 46.2469 10.1009 45.9224C9.73359 45.5711 9.5627 45.207 9.35461 44.6106L9.22093 44.2267C8.98261 43.5416 8.74663 42.8647 8.50018 42.2111C8.24792 41.5435 8.12004 41.1374 8.16422 40.6192C8.20607 40.1302 8.40602 39.6027 8.81057 38.6877C8.9954 38.2699 9.10235 37.8159 9.11863 37.3491C9.1349 36.9091 9.0698 36.4574 8.91519 36.0163C8.90938 36.0023 8.90473 35.9883 8.90008 35.9742C8.56063 35.0417 7.88057 34.3333 7.05171 33.9412C6.22286 33.5479 5.2452 33.4709 4.31172 33.8011C4.29893 33.807 4.28498 33.8116 4.27219 33.8151C3.34336 34.1559 2.63773 34.8387 2.24713 35.6708C1.85537 36.5029 1.77864 37.4844 2.10763 38.4216C2.11344 38.4356 2.11809 38.4485 2.12274 38.4625C2.28317 38.9024 2.51799 39.2923 2.80861 39.6202C3.11667 39.9692 3.48635 40.2516 3.89438 40.4558C4.69766 40.8596 5.17312 41.1269 5.51141 41.4362C5.87876 41.7711 6.05778 42.1166 6.25541 42.6651C6.4135 43.1016 6.54022 43.4622 6.66809 43.8217C6.84479 44.3224 7.02149 44.823 7.21679 45.3517L7.21911 45.3529ZM6.58672 46.7476C6.62392 46.4254 6.5437 46.1337 6.37282 45.668C6.19031 45.172 6.00547 44.6492 5.82063 44.1251C5.67532 43.7155 5.53117 43.3058 5.41027 42.9721C5.2638 42.5647 5.13941 42.3173 4.90691 42.1061C4.64651 41.868 4.22337 41.6346 3.49216 41.2658C2.98182 41.009 2.52031 40.6566 2.13553 40.2212C1.76353 39.8011 1.46477 39.3051 1.26598 38.7461C0.845161 37.5685 0.940486 36.3314 1.43338 35.2833C1.92628 34.2341 2.81791 33.374 3.98971 32.9515H3.99087C5.16266 32.529 6.39607 32.6247 7.43999 33.1196C8.48507 33.6144 9.34183 34.5096 9.76265 35.686V35.6871C9.9626 36.2473 10.0463 36.8204 10.0254 37.3817C10.0044 37.9618 9.87076 38.529 9.63942 39.053C9.27789 39.87 9.10119 40.3286 9.0698 40.6963C9.04074 41.0335 9.14536 41.3521 9.34764 41.8902C9.61152 42.5916 9.84286 43.2545 10.0765 43.9267L10.2102 44.3107C10.3706 44.7694 10.4927 45.0413 10.7252 45.263C10.9856 45.5116 11.4111 45.7485 12.1678 46.129C12.6782 46.3858 13.1397 46.7382 13.5245 47.1735C13.8965 47.5937 14.1952 48.0897 14.394 48.6487C14.8148 49.8263 14.7195 51.0634 14.2266 52.1115C13.7337 53.1607 12.8421 54.0208 11.6703 54.4433C10.4973 54.8658 9.2651 54.7701 8.22118 54.2752C7.1761 53.7804 6.31934 52.8852 5.89852 51.7076C5.69857 51.1474 5.61487 50.5744 5.6358 50.013C5.65672 49.433 5.79041 48.8658 6.02174 48.3418C6.36817 47.5587 6.54603 47.1035 6.58788 46.7452L6.58672 46.7476ZM15.8843 10.6276C15.381 11.0256 15.0415 11.2462 14.544 11.3454C14.0848 11.4376 13.5303 11.4072 12.5863 11.3092C12.1341 11.2625 11.6715 11.301 11.2251 11.4282C10.7938 11.5519 10.3799 11.7573 10.0056 12.0468C9.21744 12.6595 8.75128 13.5348 8.63387 14.4556C8.51762 15.3753 8.75012 16.3393 9.35926 17.1306C9.96957 17.9219 10.8414 18.3899 11.7586 18.5077C12.6747 18.6244 13.6349 18.391 14.4231 17.7795C14.7951 17.49 15.0973 17.1387 15.3252 16.7501C15.5612 16.3475 15.7146 15.9063 15.7832 15.4547C15.9239 14.5245 16.0331 13.9806 16.2354 13.557C16.454 13.0983 16.7469 12.8229 17.2479 12.4389L17.5711 12.1927C18.1303 11.7655 18.6813 11.3442 19.2567 10.8809C19.8101 10.435 20.1553 10.1876 20.6622 10.0697C21.1376 9.95887 21.7003 9.98689 22.6931 10.0896C23.1453 10.1363 23.6079 10.0978 24.0543 9.97055C24.4856 9.84684 24.8995 9.64143 25.2738 9.35199C26.062 8.73928 26.5281 7.86397 26.6455 6.94314C26.7618 6.02348 26.5293 5.05947 25.9201 4.26819C25.3098 3.47691 24.438 3.00892 23.5208 2.89104C22.6047 2.77433 21.6445 3.00775 20.8563 3.6193C20.4843 3.90873 20.1821 4.26003 19.9542 4.64866C19.7182 5.05247 19.5648 5.49246 19.4962 5.94412C19.3614 6.8381 19.2556 7.37379 19.0696 7.78927C18.865 8.2456 18.5929 8.52337 18.1349 8.88166C17.8548 9.10107 17.5107 9.366 17.1654 9.63209C16.7295 9.96821 16.2935 10.3043 15.8843 10.6276ZM14.3673 10.4537C14.6858 10.3895 14.9357 10.2226 15.324 9.91686C15.7693 9.5644 16.1924 9.23879 16.6144 8.91317C16.9155 8.68092 17.2154 8.44984 17.5793 8.16507C17.9199 7.89898 18.1163 7.70408 18.2442 7.41931C18.3907 7.09369 18.4813 6.61753 18.6046 5.80641C18.6906 5.2392 18.8812 4.68834 19.1742 4.18883C19.4555 3.708 19.8333 3.27034 20.3041 2.90388C21.2899 2.13827 22.4908 1.8465 23.637 1.99239C24.767 2.13711 25.8434 2.71014 26.6049 3.67649C26.6258 3.69866 26.6444 3.72317 26.6618 3.75001C27.4035 4.73269 27.686 5.92311 27.5418 7.05985C27.3977 8.19425 26.8269 9.27497 25.8643 10.0394C25.8423 10.0604 25.8178 10.0791 25.7923 10.0954C25.3319 10.4455 24.8286 10.693 24.3066 10.8424C23.7486 11.0022 23.1697 11.0501 22.6012 10.9906C21.7166 10.8984 21.2272 10.8704 20.8703 10.9544C20.5436 11.0303 20.2739 11.2287 19.8252 11.5893C19.2753 12.0328 18.7011 12.4704 18.121 12.9139L17.7978 13.1602C17.413 13.4543 17.1933 13.655 17.055 13.9456C16.9004 14.2712 16.8062 14.7509 16.6795 15.5924C16.5935 16.1596 16.4028 16.7104 16.1099 17.2099C15.8355 17.6779 15.4693 18.1063 15.016 18.4657C14.9939 18.4867 14.9695 18.5054 14.9427 18.5217C13.9639 19.2663 12.7782 19.5499 11.6459 19.4052C10.5159 19.2605 9.43948 18.6875 8.67804 17.7211C8.65712 17.6989 8.63852 17.6744 8.62108 17.6476C7.87941 16.6649 7.59692 15.4745 7.74107 14.3378C7.88755 13.1882 8.46996 12.0946 9.45575 11.329C9.9254 10.9637 10.4427 10.707 10.9775 10.5541C11.5354 10.3942 12.1144 10.3463 12.6828 10.4059C13.528 10.4934 14.0127 10.5226 14.3684 10.4514L14.3673 10.4537ZM32.3429 13.1497C32.329 12.5335 32.2894 12.1577 32.0965 11.797C31.8861 11.4026 31.4792 10.9649 30.7352 10.2308C30.2528 9.75464 29.8587 9.18393 29.5808 8.54788C29.3135 7.93516 29.1565 7.26525 29.1344 6.55917C29.0879 5.07115 29.6459 3.70566 30.5852 2.70081C31.5257 1.69478 32.8474 1.04939 34.3296 1.00271C35.8118 0.956023 37.1719 1.51622 38.1728 2.45922C39.1749 3.40339 39.8178 4.73036 39.8643 6.21838C39.8863 6.92563 39.7724 7.60488 39.5446 8.2316C39.3086 8.88049 38.9517 9.47337 38.4983 9.98222C37.8101 10.7548 37.4323 11.2158 37.244 11.6243C37.0708 12.0001 37.0522 12.3712 37.0754 12.9734C37.0964 13.5196 37.0766 12.9968 37.0952 13.4648C37.1301 14.3296 37.1638 15.1827 37.1766 16.0814C37.187 16.7921 37.2114 17.2064 37.4021 17.5904C37.6044 17.9989 38.0124 18.4424 38.7901 19.2091C39.2725 19.6853 39.6666 20.256 39.9445 20.8921C40.2118 21.5048 40.3688 22.1747 40.3909 22.8808C40.4374 24.3688 39.8805 25.7343 38.9401 26.7391C37.9996 27.7452 36.6779 28.3906 35.1957 28.4372C33.7135 28.4839 32.3534 27.9249 31.3525 26.9807C30.3504 26.0366 29.7075 24.7096 29.661 23.2216C29.639 22.5143 29.7529 21.8351 29.9807 21.2084C30.2167 20.5595 30.5736 19.9666 31.027 19.4577C31.6908 18.7131 32.0662 18.2568 32.2615 17.8577C32.4382 17.4959 32.4696 17.1504 32.4545 16.6124C32.4429 16.1946 32.4243 15.6624 32.4057 15.1314C32.3824 14.4708 32.3592 13.8091 32.3441 13.1497H32.3429ZM32.8916 11.3664C33.1741 11.8951 33.2311 12.3712 33.2473 13.1322C33.2625 13.7951 33.2857 14.4486 33.3078 15.1034C33.3241 15.5597 33.3403 16.016 33.3554 16.5879C33.3752 17.28 33.3287 17.7363 33.0718 18.258C32.8347 18.7423 32.4208 19.2512 31.6977 20.0611C31.3223 20.4824 31.0247 20.9761 30.8282 21.5188C30.6387 22.0393 30.5445 22.6042 30.5631 23.1924C30.6027 24.4283 31.1374 25.5324 31.9698 26.3167C32.8033 27.1021 33.9344 27.5678 35.1655 27.5293C36.3965 27.4896 37.4963 26.9527 38.2774 26.1171C39.0598 25.2803 39.5236 24.1447 39.4841 22.9088C39.4655 22.3182 39.3353 21.7604 39.1144 21.2539C38.8854 20.7287 38.5576 20.2549 38.1542 19.8569C37.3033 19.0166 36.8487 18.5171 36.5895 17.9942C36.3186 17.4469 36.2838 16.9415 36.2721 16.0919C36.2605 15.2376 36.2256 14.3751 36.1908 13.501C36.1884 13.4566 36.1896 13.4776 36.1908 13.501L36.1722 13.0061C36.1431 12.2557 36.1722 11.7807 36.4198 11.2438C36.6523 10.7397 37.0708 10.2226 37.8241 9.37884C38.1996 8.95752 38.4972 8.46385 38.6936 7.92115C38.8831 7.40064 38.9773 6.83577 38.9587 6.24756C38.9191 5.01162 38.3844 3.90757 37.5521 3.12329C36.7244 2.34368 35.6037 1.87918 34.3831 1.91069C34.3657 1.91186 34.3482 1.91303 34.3296 1.91186C33.109 1.95738 32.0197 2.49307 31.2432 3.32286C30.4667 4.15382 30.004 5.27889 30.0354 6.50432C30.0365 6.52299 30.0377 6.5405 30.0365 6.55917C30.0586 7.13921 30.1877 7.68774 30.405 8.18608C30.6341 8.71127 30.9619 9.1851 31.3653 9.58308C32.1732 10.3814 32.6231 10.8715 32.8881 11.3675L32.8916 11.3664ZM36.1919 13.501C36.1931 13.5255 36.1943 13.55 36.1919 13.501V13.501ZM54.3803 24.7995C54.9616 24.5952 55.3045 24.4412 55.587 24.1447C55.895 23.8214 56.1845 23.2974 56.6495 22.3626C56.9529 21.7522 57.3702 21.199 57.8852 20.7392C58.3828 20.2957 58.9698 19.9374 59.6313 19.6982C61.0251 19.194 62.491 19.3048 63.7349 19.8931C64.9788 20.4801 65.9983 21.5433 66.5016 22.9426C67.0038 24.342 66.8934 25.8137 66.3075 27.0624C65.7228 28.3112 64.6637 29.3347 63.2699 29.8401C62.6073 30.0793 61.9272 30.1809 61.2634 30.1564C60.5764 30.1318 59.9033 29.9731 59.2825 29.6977C58.3363 29.2775 57.7806 29.0593 57.3389 29.0056C56.9331 28.9566 56.5763 29.0535 56.0124 29.2624L55.5509 29.4339C54.743 29.7339 53.9467 30.0291 53.0969 30.3197C52.4273 30.5485 52.0425 30.7014 51.738 31.0002C51.4113 31.3223 51.1172 31.8475 50.6324 32.8243C50.329 33.4347 49.9117 33.9879 49.3967 34.4477C48.8992 34.8912 48.3121 35.2495 47.6506 35.4887C46.2568 35.9929 44.7909 35.882 43.547 35.2938C42.3032 34.7068 41.2837 33.6436 40.7803 32.2443C40.2781 30.8449 40.3885 29.3732 40.9744 28.1245C41.5592 26.8757 42.6182 25.8522 44.012 25.3468C44.6746 25.1076 45.3547 25.006 46.0185 25.0305C46.7055 25.055 47.3786 25.2138 47.9994 25.4892C48.9119 25.8942 49.4606 26.1113 49.8966 26.1743C50.2918 26.2315 50.6289 26.1544 51.1346 25.9735C51.5113 25.8382 52.0158 25.6538 52.5203 25.4694C53.1283 25.2464 53.7363 25.0247 54.3791 24.7983L54.3803 24.7995ZM56.2391 24.7714C55.8264 25.2044 55.3928 25.4052 54.6779 25.6561C54.0769 25.8673 53.4538 26.0949 52.8307 26.3237C52.4099 26.4777 51.9891 26.6318 51.4369 26.829C50.7882 27.0613 50.3418 27.157 49.7652 27.0741C49.2305 26.9971 48.6225 26.759 47.6332 26.3202C47.1182 26.0914 46.5579 25.9607 45.9836 25.9397C45.4326 25.9199 44.8688 26.0039 44.3166 26.2035C43.1564 26.6224 42.2764 27.4744 41.7905 28.5119C41.3046 29.5495 41.2127 30.7726 41.6312 31.9385C42.0486 33.1032 42.8972 33.9867 43.9307 34.4745C44.9641 34.9624 46.1824 35.0546 47.3437 34.6344C47.8959 34.4349 48.3842 34.1373 48.7957 33.7708C49.2246 33.388 49.5722 32.9293 49.8233 32.4228C50.3581 31.3479 50.6906 30.7586 51.1032 30.3524C51.538 29.9241 52.0053 29.735 52.8075 29.4608C53.6107 29.1853 54.4187 28.8854 55.2371 28.582L55.6986 28.4104C56.3996 28.1513 56.8587 28.0323 57.4481 28.1035C58.0003 28.17 58.6188 28.4092 59.6476 28.8656C60.1625 29.0943 60.7229 29.225 61.2971 29.246C61.8482 29.2659 62.412 29.1818 62.9642 28.9823C64.1243 28.5633 65.0043 27.7113 65.4903 26.6738C65.9762 25.6363 66.068 24.4132 65.6495 23.2472C65.2322 22.0825 64.3836 21.199 63.3501 20.7112C62.3166 20.2233 61.0984 20.1311 59.937 20.5513C59.3848 20.7509 58.8966 21.0485 58.4851 21.4149C58.0561 21.7977 57.7085 22.2564 57.4574 22.7629C56.9506 23.7829 56.6251 24.363 56.238 24.7703L56.2391 24.7714ZM50.1546 49.4412C50.5266 49.9314 50.7777 50.2114 51.1474 50.39C51.5508 50.5849 52.1367 50.7005 53.1667 50.8545C53.8386 50.956 54.4907 51.1836 55.0848 51.5326C55.659 51.8699 56.1787 52.3204 56.6111 52.8794C57.5202 54.0546 57.8678 55.489 57.6957 56.858C57.5237 58.227 56.832 59.5294 55.6625 60.4409C54.4919 61.3536 53.0632 61.7025 51.6996 61.5298C50.336 61.3571 49.0387 60.6626 48.1307 59.4886C47.6995 58.9307 47.3937 58.3121 47.2112 57.6703C47.0217 57.005 46.9636 56.3141 47.0333 55.6349C47.1391 54.6032 47.1728 54.0068 47.0868 53.5668C47.0078 53.1642 46.8055 52.8537 46.4335 52.3799L46.1301 51.9936C45.5837 51.2992 45.0443 50.6129 44.5305 49.9243C44.1039 49.3525 43.8411 49.0304 43.4668 48.8343C43.0646 48.6242 42.474 48.5063 41.3953 48.343C40.7233 48.2414 40.0712 48.0138 39.4771 47.6649C38.9029 47.3276 38.3832 46.8771 37.9508 46.3181C37.0417 45.1428 36.6941 43.7085 36.8662 42.3395C37.0382 40.9705 37.7299 39.6681 38.8994 38.7566C40.07 37.8439 41.4987 37.4949 42.8623 37.6677C44.2259 37.8404 45.5233 38.5348 46.4312 39.7089C46.8625 40.2668 47.1682 40.8853 47.3507 41.5272C47.5402 42.1924 47.5983 42.8834 47.5286 43.5626C47.4274 44.5546 47.3914 45.1452 47.467 45.584C47.5344 45.9796 47.7122 46.2772 48.0401 46.7044C48.3958 47.1677 48.6701 47.5202 48.9445 47.8726C49.356 48.4001 49.7664 48.9288 50.1546 49.44V49.4412ZM50.7568 51.2093C50.2209 50.949 49.8954 50.5966 49.4362 49.9909C49.0259 49.4505 48.6295 48.9417 48.2342 48.4328C47.9029 48.0068 47.5704 47.5809 47.324 47.2587C46.9043 46.7114 46.6741 46.3146 46.5753 45.7392C46.4835 45.207 46.5207 44.5523 46.6323 43.4681C46.6893 42.9067 46.6416 42.3313 46.4835 41.7781C46.3312 41.2459 46.0778 40.7336 45.7174 40.2679C44.9606 39.2899 43.8818 38.7122 42.7496 38.5687C41.6173 38.4251 40.4292 38.7157 39.4551 39.4743C38.4809 40.2341 37.9054 41.3171 37.7625 42.4539C37.6195 43.5906 37.9089 44.7834 38.6646 45.7614C39.0238 46.227 39.4562 46.6005 39.9317 46.8806C40.4281 47.1724 40.9709 47.3626 41.5278 47.4466C42.7065 47.624 43.3657 47.7606 43.883 48.0313C44.427 48.3161 44.7502 48.7036 45.2547 49.3805C45.7883 50.0959 46.3091 50.7588 46.8381 51.4299L47.1415 51.8162C47.6041 52.4056 47.8587 52.807 47.9726 53.3917C48.0796 53.9379 48.0447 54.6032 47.9296 55.7294C47.8727 56.2908 47.9203 56.8661 48.0784 57.4193C48.2307 57.9515 48.4841 58.4639 48.8445 58.9295C49.6013 59.9075 50.6801 60.4853 51.8124 60.6288C52.9446 60.7724 54.1327 60.4818 55.1069 59.7231C56.081 58.9634 56.6565 57.8803 56.7995 56.7436C56.9424 55.6069 56.653 54.4141 55.8974 53.4361C55.5382 52.9704 55.1057 52.597 54.6302 52.3169C54.1339 52.0251 53.591 51.8349 53.0341 51.7508C51.9112 51.5816 51.2613 51.4509 50.758 51.207L50.7568 51.2093ZM25.5063 53.0218C25.1564 53.5283 24.9692 53.8551 24.9146 54.2659C24.8541 54.7117 24.9262 55.3069 25.0971 56.3363C25.2087 57.0097 25.1947 57.7018 25.0471 58.3775C24.9053 59.0287 24.6391 59.6648 24.2427 60.2495C23.4092 61.4808 22.1583 62.2569 20.8098 62.5148C19.4613 62.7739 18.0129 62.5148 16.7864 61.6792C15.56 60.8424 14.7869 59.5866 14.53 58.2328C14.272 56.879 14.53 55.4248 15.3624 54.1935C15.7576 53.61 16.2482 53.128 16.8004 52.7545C17.3735 52.3659 18.0105 52.0963 18.6732 51.9539C19.6834 51.7357 20.2588 51.5851 20.6494 51.3657C20.6587 51.361 20.6668 51.3564 20.6761 51.3517C21.0167 51.1544 21.2458 50.8662 21.5724 50.3748L21.8456 49.964C22.328 49.2381 22.8035 48.5215 23.3103 47.8003C23.7195 47.2167 23.9427 46.8654 24.0137 46.4453C24.0892 45.9936 24.0195 45.3937 23.8393 44.3165C23.7277 43.6431 23.7416 42.951 23.8893 42.2753C24.0311 41.6241 24.2973 40.988 24.6937 40.4033C25.5272 39.172 26.7781 38.3959 28.1266 38.138C29.475 37.8789 30.9235 38.138 32.1499 38.9736C33.3764 39.8104 34.1483 41.0662 34.4063 42.42C34.6644 43.7738 34.4063 45.228 33.574 46.4593C33.1788 47.0428 32.6882 47.5248 32.1372 47.8983C31.5629 48.2869 30.927 48.5565 30.2644 48.6989C29.2879 48.9102 28.7171 49.0584 28.3288 49.2638C27.9778 49.4493 27.7499 49.7108 27.4465 50.1566C27.1256 50.6281 26.8722 51.0051 26.6176 51.3832C26.2515 51.9294 25.8853 52.4744 25.5075 53.0218H25.5063ZM24.0171 54.141C24.0974 53.5505 24.331 53.1326 24.7635 52.5059C25.1355 51.9667 25.5016 51.4205 25.8678 50.8755C26.1643 50.4344 26.4607 49.992 26.6979 49.6454C27.0861 49.0747 27.3919 48.7328 27.908 48.4597C28.3881 48.2052 29.0182 48.0395 30.0749 47.8108C30.6282 47.6917 31.1572 47.4676 31.6315 47.1479C32.0883 46.8386 32.4964 46.4371 32.8265 45.9493C33.5182 44.9257 33.7321 43.7178 33.5182 42.5904C33.3043 41.4642 32.6614 40.4197 31.6431 39.7252C30.6236 39.0308 29.4204 38.8161 28.2974 39.0308C27.1756 39.2456 26.1352 39.891 25.4435 40.9133C25.1145 41.4 24.8937 41.9287 24.7751 42.4702C24.6519 43.0339 24.6402 43.6116 24.7321 44.1683C24.9285 45.3517 25.0041 46.0251 24.9076 46.5982C24.8065 47.2027 24.5391 47.631 24.0532 48.3231C23.5533 49.0339 23.0802 49.747 22.6001 50.4682L22.3269 50.879C21.9212 51.4871 21.6236 51.8524 21.1225 52.1406C21.1121 52.1476 21.1016 52.1546 21.0911 52.1605C20.6064 52.4312 19.9659 52.6028 18.8638 52.8409C18.3105 52.9599 17.7815 53.184 17.3072 53.5038C16.8504 53.8131 16.4423 54.2145 16.1122 54.7024C15.4205 55.7259 15.2066 56.9338 15.4205 58.0612C15.6344 59.1875 16.2773 60.232 17.2956 60.9276C18.3151 61.622 19.5183 61.8367 20.6413 61.622C21.7631 61.4072 22.8035 60.7618 23.4963 59.7395C23.8253 59.2528 24.0462 58.7241 24.1648 58.1826C24.288 57.6189 24.2996 57.0412 24.2078 56.4845C24.0206 55.3594 23.9439 54.6965 24.0183 54.1422L24.0171 54.141ZM12.9781 29.518C13.5617 29.4118 14.0302 29.5051 14.7567 29.7245C15.3868 29.9148 16.0157 30.0957 16.6434 30.2754C17.1166 30.4119 17.5897 30.5473 18.064 30.6874C18.7243 30.8823 19.1428 31.0678 19.5601 31.4763C19.9496 31.8568 20.303 32.4065 20.8447 33.3436C21.1283 33.8338 21.5038 34.2703 21.956 34.6251C22.3897 34.9647 22.8953 35.2296 23.4603 35.3942C24.6437 35.7385 25.8539 35.5693 26.8548 35.0172C27.8557 34.4652 28.6462 33.5292 28.9891 32.3411C29.3321 31.153 29.1635 29.9381 28.6136 28.9333C28.0638 27.9284 27.1315 27.1348 25.948 26.7905C25.3831 26.6259 24.8146 26.5781 24.2671 26.6318C23.6963 26.6878 23.1464 26.8559 22.6454 27.1173C21.5875 27.6693 20.9749 27.9482 20.3983 28.0346C19.795 28.1245 19.3067 28.0019 18.4999 27.751C17.6688 27.4931 16.848 27.262 16.018 27.0274C15.8681 26.9854 15.7204 26.9434 15.5437 26.8932C14.8265 26.6901 14.387 26.5151 13.9523 26.1101C13.5419 25.7273 13.1815 25.1706 12.6177 24.1949C12.3341 23.7047 11.9586 23.2682 11.5064 22.9135C11.0728 22.5738 10.5671 22.3089 10.0021 22.1444C8.8187 21.8001 7.60855 21.9693 6.60764 22.5213C5.60673 23.0733 4.81624 24.0093 4.4733 25.1974C4.13037 26.3855 4.29893 27.6004 4.84879 28.6053C5.39865 29.6102 6.33097 30.4038 7.51439 30.7481C8.07936 30.9126 8.64782 30.9605 9.19535 30.9068C9.76614 30.8508 10.316 30.6827 10.817 30.4213C11.8226 29.8961 12.4259 29.6183 12.9781 29.518Z" fill="url(#paint0_linear_28_33)" stroke="url(#paint1_linear_28_33)"/>
<path d="M104.508 17.8189C104.928 17.8189 105.222 18.1135 105.222 18.4924V21.7341C105.222 22.1551 104.97 22.4077 104.509 22.4077H88.2384V32.6799H97.5058C97.9252 32.6799 98.2187 32.9746 98.2187 33.3956V36.5531C98.2187 37.0162 97.9252 37.2688 97.5058 37.2688H88.2384V50.7827C88.2384 51.2458 87.9868 51.498 87.6094 51.498H85.0935C84.0871 51.498 83.5 50.7827 83.5 49.8144V18.493C83.5 18.1142 83.7516 17.8194 84.1709 17.8194H104.508L104.508 17.8189ZM114.405 51.7921C120.276 51.7921 125.14 47.1194 125.14 41.0993C125.14 34.9528 120.276 30.3641 114.405 30.3641C108.534 30.3641 103.67 34.953 103.67 41.0993C103.67 47.1194 108.534 51.7921 114.405 51.7921ZM114.405 47.4984C110.799 47.4984 108.115 44.5093 108.115 41.1415C108.115 37.6472 110.798 34.6581 114.405 34.6581C118.011 34.6581 120.695 37.6472 120.695 41.1415C120.695 44.5093 118.011 47.4984 114.405 47.4984ZM138.936 51.7921C144.807 51.7921 149.671 47.1194 149.671 41.0993C149.671 34.9528 144.807 30.3641 138.936 30.3641C133.065 30.3641 128.201 34.953 128.201 41.0993C128.201 47.1194 133.065 51.7921 138.936 51.7921ZM138.936 47.4984C135.33 47.4984 132.646 44.5093 132.646 41.1415C132.646 37.6472 135.33 34.6581 138.936 34.6581C142.543 34.6581 145.226 37.6472 145.226 41.1415C145.226 44.5093 142.543 47.4984 138.936 47.4984ZM165.773 17.8189C176.928 17.8189 182.925 26.4917 182.925 34.4902C182.925 43.289 176.886 51.4984 165.816 51.4984H154.577C154.158 51.4984 153.864 51.2037 153.864 50.7827V18.4926C153.864 18.1137 154.116 17.819 154.535 17.819H165.773L165.773 17.8189ZM165.9 46.9095C173.658 46.9095 178.103 40.8051 178.061 34.4482C178.061 28.2175 173.783 22.4078 165.9 22.4078H158.562L158.603 46.9095H165.9H165.9ZM192.486 17.8189L189.256 17.8184C188.837 17.8184 188.585 18.1131 188.585 18.492V50.7821C188.585 51.2031 188.879 51.4978 189.299 51.4978H192.528C192.905 51.4978 193.157 51.1614 193.157 50.7825V18.4925C193.157 18.1136 192.863 17.8189 192.486 17.8189L192.486 17.8189ZM198.608 45.7299L200.453 43.6245C200.914 43.1193 201.418 43.1193 201.795 43.414C202.927 44.3823 205.779 47.2451 209.595 47.2451C213.788 47.2451 216.304 45.2243 216.304 42.4458C216.304 38.9937 212.529 38.0253 208.923 36.6361C203.43 34.4469 199.068 32.0052 199.068 26.7426C199.068 22.4486 202.213 17.5651 209.761 17.5651C214.919 17.5651 218.651 20.5541 219.7 21.5646C220.077 21.9434 220.287 22.4486 219.951 22.8696L218.316 25.0167C217.98 25.4802 217.519 25.6486 216.974 25.2697C215.884 24.4277 213.284 22.0702 209.803 22.0702C206.029 22.0702 203.807 24.1752 203.807 26.7434C203.807 29.6482 206.574 30.8271 210.517 32.3425C215.549 34.3632 221 36.7207 221 42.4882C221 47.414 216.304 51.7917 209.636 51.7917C203.598 51.7917 199.866 47.877 198.817 46.8665C198.482 46.5718 198.188 46.1933 198.608 45.7298L198.608 45.7299Z" fill="white"/>
<defs>
<linearGradient id="paint0_linear_28_33" x1="1" y1="1" x2="69.75" y2="1" gradientUnits="userSpaceOnUse">
<stop stop-color="#009550"/>
<stop offset="1" stop-color="#96CF24"/>
</linearGradient>
<linearGradient id="paint1_linear_28_33" x1="35.375" y1="1" x2="35.375" y2="68" gradientUnits="userSpaceOnUse">
<stop stop-color="#009550"/>
<stop offset="1" stop-color="#96CF24"/>
</linearGradient>
</defs>
</svg>
